<?xml version="1.0" encoding="UTF-8" standalone="no" ?>
<!DOCTYPE svg PUBLIC "-//W3C//DTD SVG 1.1//EN" "http://www.w3.org/Graphics/SVG/1.1/DTD/svg11.dtd">
<svg xmlns="http://www.w3.org/2000/svg" xmlns:xlink="http://www.w3.org/1999/xlink" version="1.1" width="1280" height="640" viewBox="0 0 1280 640" xml:space="preserve">
<desc>Created with Fabric.js 4.6.0</desc>
<defs>
</defs>
<g transform="matrix(10.89 0 0 10.89 624.35 399.23)" id="fL9jOTKwCCj1Y9QSvnyw2"  >
<path style="stroke: none; stroke-width: 1; stroke-dasharray: none; stroke-linecap: butt; stroke-dashoffset: 0; stroke-linejoin: miter; stroke-miterlimit: 4; fill: rgb(225,90,41); fill-rule: nonzero; opacity: 1;" vector-effect="non-scaling-stroke"  transform=" translate(-30, -39)" d="M 30 48 C 39.9411 48 48 39.9411 48 30 L 12 30 C 12 39.9411 20.0589 48 30 48 Z" stroke-linecap="round" />
</g>
<g transform="matrix(10.89 0 0 10.89 493.73 170.63)" id="Tg-s50nJyjVnlHRENuM-P"  >
<path style="stroke: none; stroke-width: 1; stroke-dasharray: none; stroke-linecap: butt; stroke-dashoffset: 0; stroke-linejoin: miter; stroke-miterlimit: 4; fill: rgb(233,233,226); fill-rule: nonzero; opacity: 1;" vector-effect="non-scaling-stroke"  transform=" translate(-4, -4)" d="M 0 4 C 0 1.79086 1.79086 0 4 0 C 6.20914 0 8 1.79086 8 4 C 8 6.20914 6.20914 8 4 8 C 1.79086 8 0 6.20914 0 4 z" stroke-linecap="round" />
</g>
<g transform="matrix(10.89 0 0 10.89 754.97 170.63)" id="970q0bH6B1Md2PNKowIp8"  >
<path style="stroke: none; stroke-width: 1; stroke-dasharray: none; stroke-linecap: butt; stroke-dashoffset: 0; stroke-linejoin: miter; stroke-miterlimit: 4; fill: rgb(233,233,226); fill-rule: nonzero; opacity: 1;" vector-effect="non-scaling-stroke"  transform=" translate(-4, -4)" d="M 0 4 C 0 1.79086 1.79086 0 4 0 C 6.20914 0 8 1.79086 8 4 C 8 6.20914 6.20914 8 4 8 C 1.79086 8 0 6.20914 0 4 z" stroke-linecap="round" />
</g>
<g transform="matrix(10.89 0 0 10.89 624.35 148.87)" id="rY_JICZ04kIe2ETcmgzyq"  >
<path style="stroke: none; stroke-width: 1; stroke-dasharray: none; stroke-linecap: butt; stroke-dashoffset: 0; stroke-linejoin: miter; stroke-miterlimit: 4; fill: rgb(233,233,226); fill-rule: nonzero; opacity: 1;" vector-effect="non-scaling-stroke"  transform=" translate(-4, -4)" d="M 0 4 C 0 1.79086 1.79086 0 4 0 C 6.20914 0 8 1.79086 8 4 C 8 6.20914 6.20914 8 4 8 C 1.79086 8 0 6.20914 0 4 z" stroke-linecap="round" />
</g>
<g transform="matrix(0.34 0 0 0.34 764.63 447.64)" id="wuMiQwpk5MutuQSOIMbYT"  >
<path style="stroke: none; stroke-width: 1; stroke-dasharray: none; stroke-linecap: butt; stroke-dashoffset: 0; stroke-linejoin: miter; stroke-miterlimit: 4; fill: rgb(49,120,198); fill-rule: nonzero; opacity: 1;" vector-effect="non-scaling-stroke"  transform=" translate(0, 0)" d="M -217.0561 256 C -238.56421999999998 256 -256 238.56422 -256 217.05610000000001 L -256 -217.05611 L -256 -217.05611 C -256 -238.56422999999998 -238.56422 -256.00001 -217.05610000000001 -256.00001 L 217.05611 -256.00001 L 217.05611 -256.00001 C 238.56422999999998 -256.00001 256.00001 -238.56422999999998 256.00001 -217.05611 L 256.00001 217.05610000000001 L 256.00001 217.05610000000001 C 256.00001 238.56422 238.56422999999998 256 217.05611 256 z" stroke-linecap="round" />
</g>
<g transform="matrix(0.34 0 0 0.34 777.41 480.81)" id="tl0H8cIpHgWrTB6YPOJ4W"  >
<path style="stroke: none; stroke-width: 1; stroke-dasharray: none; stroke-linecap: butt; stroke-dashoffset: 0; stroke-linejoin: miter; stroke-miterlimit: 4; fill: rgb(255,255,255); fill-rule: evenodd; opacity: 1;" vector-effect="non-scaling-stroke"  transform=" translate(0, 0)" d="M 23.45 53.53 L 23.45 103.53 C 31.549999999999997 107.73 41.45 110.83 52.45 112.93 C 63.45 115.03 75.45 116.03 87.45 116.03 C 99.45 116.03 110.45 114.93 121.45 112.63 C 132.45 110.33 141.45 106.53 149.45 101.63 C 157.54999999999998 96.33 164.45 89.63 168.45 80.63 C 172.45 71.63 175.54999999999998 61.629999999999995 175.54999999999998 48.629999999999995 C 175.54999999999998 39.529999999999994 174.14999999999998 31.629999999999995 171.45 24.629999999999995 C 168.75 17.629999999999995 164.85 11.629999999999995 159.45 6.6299999999999955 C 154.35 1.3299999999999956 148.45 -3.3700000000000045 141.45 -7.3700000000000045 C 134.45 -11.370000000000005 126.44999999999999 -15.570000000000004 117.44999999999999 -19.370000000000005 C 110.85 -22.070000000000004 105.44999999999999 -24.670000000000005 99.44999999999999 -27.270000000000003 C 94.24999999999999 -29.870000000000005 89.74999999999999 -32.470000000000006 86.44999999999999 -35.07 C 82.74999999999999 -37.77 79.94999999999999 -40.57 77.94999999999999 -43.47 C 75.94999999999999 -46.47 74.94999999999999 -49.769999999999996 74.94999999999999 -53.47 C 74.94999999999999 -56.87 75.83999999999999 -59.97 77.64999999999999 -62.769999999999996 C 79.46 -65.57 81.94999999999999 -67.86999999999999 85.14999999999999 -69.86999999999999 C 88.35 -71.86999999999999 92.35 -73.36999999999999 97.14999999999999 -74.46999999999998 C 101.85 -75.56999999999998 107.05 -76.06999999999998 113.14999999999999 -76.06999999999998 C 117.35 -76.06999999999998 121.74999999999999 -75.75999999999998 126.14999999999999 -75.12999999999998 C 130.75 -74.49999999999999 135.45 -73.52999999999999 140.14999999999998 -72.22999999999998 C 144.84999999999997 -70.92999999999998 149.45 -69.32999999999997 154.14999999999998 -67.32999999999997 C 158.54999999999998 -65.32999999999997 162.64999999999998 -63.02999999999997 166.14999999999998 -60.42999999999997 L 166.14999999999998 -107.42999999999998 C 158.54999999999998 -110.32999999999998 150.14999999999998 -112.52999999999997 141.14999999999998 -113.92999999999998 C 132.14999999999998 -115.32999999999998 122.14999999999998 -116.02999999999997 110.14999999999998 -116.02999999999997 C 98.14999999999998 -116.02999999999997 87.14999999999998 -114.72999999999998 76.14999999999998 -112.22999999999998 C 65.14999999999998 -109.72999999999998 56.14999999999998 -105.72999999999998 48.14999999999998 -100.22999999999998 C 40.049999999999976 -94.82999999999997 34.14999999999998 -88.22999999999998 29.149999999999977 -79.22999999999998 C 24.449999999999978 -70.82999999999997 22.149999999999977 -61.229999999999976 22.149999999999977 -49.229999999999976 C 22.149999999999977 -34.229999999999976 26.449999999999978 -21.229999999999976 35.14999999999998 -11.229999999999976 C 43.74999999999998 -0.22999999999997556 57.14999999999998 7.770000000000024 74.14999999999998 15.770000000000024 C 81.04999999999998 18.570000000000025 87.14999999999998 21.370000000000026 93.14999999999998 24.070000000000025 C 99.14999999999998 26.770000000000024 104.14999999999998 29.570000000000025 108.14999999999998 32.47000000000003 C 112.44999999999997 35.370000000000026 115.84999999999998 38.57000000000003 118.14999999999998 41.97000000000003 C 120.64999999999998 45.370000000000026 121.94999999999997 49.370000000000026 121.94999999999997 53.97000000000003 C 121.94999999999997 57.17000000000003 121.16999999999997 60.17000000000003 119.64999999999998 62.97000000000003 C 118.12999999999998 65.77000000000002 115.74999999999997 68.17000000000003 112.54999999999998 70.17000000000003 C 109.34999999999998 72.17000000000003 105.44999999999999 73.77000000000002 100.54999999999998 74.97000000000003 C 95.84999999999998 76.07000000000002 90.54999999999998 76.67000000000003 83.54999999999998 76.67000000000003 C 72.54999999999998 76.67000000000003 61.54999999999998 74.77000000000002 51.54999999999998 70.97000000000003 C 40.54999999999998 67.17000000000003 30.549999999999983 61.47000000000003 21.549999999999983 53.97000000000003 z M -60.55 -69.47 L 3.450000000000003 -69.47 L 3.450000000000003 -110.47 L -175.55 -110.47 L -175.55 -69.47 L -111.55000000000001 -69.47 L -111.55000000000001 113.53 L -60.55000000000001 113.53 z" stroke-linecap="round" />
</g>
</svg>